<?xml version="1.0" encoding="UTF-8"?>
<svg id="Livello_1" data-name="Livello 1" xmlns="http://www.w3.org/2000/svg" viewBox="0 0 250 250">
  <defs>
    <style>
      .cls-1 {
        fill: #fff;
        stroke-width: 0px;
      }
    </style>
  </defs>
  <path class="cls-1" d="M126.98,152.34h-9.96c0-3.47,0-6.77,0-10.07.02-8.39.05-16.79.04-25.18,0-1.64.52-3.47-1.9-4.23-.52-.16-.59-1.81-.97-3.15-1.85-.11-3.88-.18-5.9-.36-7.76-.69-12.37-5.28-13.13-13-.18-1.83-.42-3.65-.64-5.47-.68-5.43-1.26-10.05-6.79-14.04-8.98-6.47-10.35-19.35-5.16-29.81,4.42-8.92,15.73-14.34,26.21-12.55,2.93.5,5.85,1.04,8.96,2.02-6.22,1.91-11.68,4.78-15.53,10.08-3.78,5.21-5.22,10.9-4.17,17.76,1.9-4.29,3.11-8.24,5.35-11.49.96-1.4,4.06-1.32,5.8-1.8,0,5.21-.62,9.96.12,14.49,2.12,13.1,12.29,21.78,25.81,21.63,4.85-.05,8.61,1.05,12.17,4,1.3,1.08,2.85,1.86,5.09,3.29-2.97.14-5.05.24-7.5.36-.27,1.56-.54,3.09-.8,4.63-1.27,7.35-8.51,12.75-15.24,9.89-3.34-1.42-6.27-1.59-9.45-1.67-.99-.02-2.02,1.17-3.03,1.8.16.41.31.82.47,1.22,3.19,0,6.37-.06,9.56.04.78.02,1.72.37,2.24.91.25.25-.34,1.3-.53,1.99-.35,1.26-.96,2.52-.98,3.79-.11,10.46-.1,20.93-.13,31.39,0,1.12,0,2.24,0,3.54ZM135.5,95.21c-2.59-1.34-5.08-2.69-7.64-3.91-.85-.41-2.11-.93-2.78-.6-3.96,1.99-7.82.99-11.66-.12-2.35-.68-4.64-1.61-7.37-2.58.32,3.09.46,5.71.88,8.29.58,3.59,2.69,5.32,6.36,5.38,4.81.07,9.63.09,14.45.09,5.56,0,6.82-1.13,7.76-6.55ZM96.87,65.26c-.76,4.71,3.36,32.44,5,34.19-.11-1.63-.22-3.21-.31-4.8-.43-8.12-.83-16.24-1.29-24.36-.12-2.18-.42-4.33-3.4-5.03Z"/>
  <path class="cls-1" d="M114.81,154.94h14.83c0,1.9,0,3.69,0,5.48,0,7.01-.07,14.03.06,21.04.04,2.24-1.33,5.17,2.2,6.31.23.07.44.9.32,1.25-1.15,3.18,1.33,4.07,3.25,5.42,11.65,8.21,23.27,16.47,34.89,24.72.52.37.96.84,2.13,1.87-5.98,0-11.1.09-16.21-.08-.99-.03-2-1-2.91-1.66-7.34-5.34-14.66-10.71-22-16.06-.79-.58-1.7-1.01-2.77-1.64v19.15h-12.62v-19.33c-5.05,3.65-9.56,6.9-14.06,10.18-1.39,1.01-2.94,1.91-4.08,3.17-6.62,7.36-15.17,6.79-24.52,5.89,4.61-3.4,8.79-6.52,13-9.57,8.19-5.94,16.41-11.84,24.61-17.75.37-.27.98-.46,1.08-.81.98-3.18,2.53-6.36,2.66-9.58.36-9.27.13-18.56.13-28ZM114.93,190.86h15.3c-2.27-3.22-13.18-3.26-15.3,0Z"/>
  <path class="cls-1" d="M142.74,37.24c13.92,9.42,17.68,23.6,9.9,37.36-4.41,7.81-12.69,12.66-20.36,11.54-9.56-1.4-16.46-6.46-19.14-15.98-2.96-10.5-1.76-20.35,6.56-28.25,5.31-5.04,11.73-6.98,19.05-5.47,1.11.23,2.28.22,3.42.31.19.16.38.33.57.49ZM116.98,60.85c0,5.55,1.42,10.42,4.92,14.56,4.77,5.65,11.77,7.08,18.36,3.81,11.55-5.73,14.38-24.69,5.01-33.57-5.39-5.11-12.27-6.01-18.69-2.21-6.65,3.93-9.32,10.15-9.6,17.42Z"/>
  <path class="cls-1" d="M153.13,43.8c4.55,0,8.79-.22,13,.06,4.27.29,7.37,2.74,8.71,6.8,2.87,8.67,2.45,17.23-1.89,25.37-2.17,4.08-5.78,6.09-10.47,6.05-4-.03-7.99,0-12.23-.46,8.89-12.23,10.32-24.6,2.87-37.82Z"/>
  <path class="cls-1" d="M142.74,37.24c-.19-.16-.38-.33-.57-.49-5.19-.95-10.39-1.9-15.27-2.79,3.19-2.23,7.29-5.21,12.06-5.14,7.35.11,14.69,1.33,22.07,2.53-6.09,2.2-11.26,6.92-18.29,5.89Z"/>
</svg>