<?xml version="1.0" encoding="UTF-8"?>
<svg id="Livello_1" data-name="Livello 1" xmlns="http://www.w3.org/2000/svg" viewBox="0 0 250 250">
  <defs>
    <style>
      .cls-1 {
        fill: #fff;
        stroke-width: 0px;
      }
    </style>
  </defs>
  <path class="cls-1" d="M215.29,123.99c-4.27-7.19-2.41-26.89,7.82-32.14,11.21-5.75,25.67,1.41,26.59,14.48.68,9.75.13,19.68-.88,29.42-.85,8.23-5.91,13.74-14.45,15.09-2.9.46-3.78,1.89-3.34,4.42.8,4.56,1.71,9.1,2.68,13.63.74,3.45,1.65,6.87,2.48,10.26-7.34,2.59-9.78,1.62-12.98-4.69-2.15-4.23-3.48-9.93-6.98-12.13-3.35-2.12-9.02-.65-13.67-.65-54.2-.04-108.4,0-162.6-.19-4.52-.02-7.11,1.24-8.63,5.43-.97,2.68-2.53,5.15-3.77,7.74-2.93,6.11-5.26,7.05-12.56,4.77,1.18-4.7,2.4-9.43,3.55-14.16.52-2.12,1.07-4.26,1.31-6.42.64-5.83.21-6.26-5.43-8.12-5.95-1.97-10.26-5.73-11.95-11.94-3.02-11.14-3.05-22.51-1.33-33.76,1.34-8.76,9.08-14.95,17.47-15.25,8.55-.3,15.78,4.8,17.93,13.84,1.24,5.22,1.04,10.83,1.15,16.26.02,1.17-1.39,2.38-2.5,4.12h180.09ZM225.18,151.8c-.1-.72-.2-1.45-.3-2.17-4.28-.37-8.56-1.05-12.84-1.06-58.03-.08-116.06-.09-174.09,0-4.07,0-8.15.95-12.22,1.46-.04.52-.08,1.04-.12,1.56,1.55.51,3.06,1.32,4.65,1.48,3.25.34,6.54.45,9.82.45,44.75.05,89.51.08,134.26.07,14.91,0,29.83-.1,44.74-.31,2.04-.03,4.06-.96,6.1-1.47Z"/>
  <path class="cls-1" d="M95.59,118.7c0-3.67,0-6.92,0-10.18,0-10.11.02-20.23,0-30.34-.01-6.23,2.18-8.52,8.56-8.64,4.51-.09,9.03-.06,13.54-.06,9.85,0,19.7-.04,29.55.02,6.07.04,8.33,2.39,8.34,8.43.02,12.03.04,24.06.06,36.08,0,1.47,0,2.94,0,4.69h-60.06Z"/>
  <path class="cls-1" d="M43.18,118.67c0-3.06.13-6.17-.03-9.27-.43-8.54-3.73-15.84-10.97-20.54-3.62-2.35-4.4-4.94-3.96-8.74.49-4.17,2.43-7.36,6.21-8.98,2.32-.99,5-1.41,7.54-1.56,4.23-.25,8.48-.07,12.73-.07,9.04,0,18.07-.04,27.11.03,6.24.05,8.54,2.47,8.53,8.65-.01,11.76,0,23.52,0,35.29,0,1.61,0,3.22,0,5.2h-47.17Z"/>
  <path class="cls-1" d="M161.15,118.89c0-15.21-.04-29.55.03-43.88.02-3.07,3.16-5.38,7.47-5.44,7.93-.11,15.86,0,23.8,0,6.02,0,12.04-.13,18.05.04,8.5.25,13.88,6.71,12.7,15.11-.11.79-.73,1.77-1.41,2.17-10.48,6.16-14.34,15.62-13.85,27.31.06,1.49,0,2.99,0,4.68h-46.79Z"/>
</svg>