<?xml version="1.0" encoding="UTF-8"?>
<svg id="Livello_1" xmlns="http://www.w3.org/2000/svg" viewBox="0 0 1572.53 229.63">
  <path d="M1158.81,162.42c4.81,2.79,9.32,5.42,13.83,8.03,18.77,10.83,37.36,21.98,57.59,30.03,26.42,10.51,53.35,13.18,81,5.64,3.3-.9,6.51-2.17,9.76-3.27.88,6.39-.73,9.75-6.2,12.46-13.01,6.45-26.98,8.73-41.3,9.44-23.2,1.14-44.9-4.8-65.03-15.68-21.1-11.41-41.58-23.99-62.23-36.21-2.56-1.52-4.5-1.64-7.26-.51-25.77,10.54-71.34,7.64-93.13-32.62-17.83-32.92-17.14-66.46,2.2-98.47,16.56-27.42,42.49-38.2,73.86-35.87,43.58,3.25,69.2,36.78,71.35,75.84,1.03,18.68-1.78,36.59-10.7,53.26-5.15,9.63-11.99,17.9-20.28,24.99-1.07.92-2.15,1.84-3.46,2.96ZM1053.32,92.25c.12,13.43,3.45,30.54,13.56,45.67,12.92,19.33,31.29,28.7,54.37,26.47,23.01-2.22,38.14-15.8,46.49-36.94,6.32-15.98,7.26-32.68,5-49.59-1.85-13.8-6.46-26.6-15.23-37.56-13.98-17.47-32.33-25.21-54.47-22.27-22.27,2.95-36.14,16.73-44.12,37.06-4.11,10.49-5.65,21.46-5.61,37.16Z"/>
  <path d="M678.02,4.77c1.42,1.34,2.97,2.55,4.23,4.03,11.93,13.96,23.84,27.94,35.7,41.95,23.15,27.36,46.26,54.75,69.4,82.11,1.43,1.69,3.01,3.24,4.52,4.86.35-.05.7-.1,1.04-.15-.68-43.15-1.37-86.3-2.05-129.62h16.98c-.6,56.39-1.2,112.8-1.81,169.22-.35.17-.71.34-1.06.51-1.53-1.31-3.26-2.46-4.58-3.96-11.75-13.37-23.7-26.59-35.08-40.27-23.63-28.4-46.95-57.06-70.41-85.61-1.31-1.59-2.74-3.07-4.11-4.6-.31.08-.62.16-.93.24.74,43.45,1.48,86.9,2.22,130.77h-17.4c.65-56.13,1.31-112.56,1.97-168.99.46-.16.92-.32,1.38-.48Z"/>
  <path d="M155.77,7.94h20.24c0,.92.02,1.86,0,2.81-.42,20.25-.84,40.5-1.29,60.76-.04,2.03-.11,3.6,2.83,3.59,28.49-.09,56.98-.06,85.47-.07.43,0,.87-.09,2.15-.23-.44-22.27-.87-44.54-1.31-66.86h20.12c-1.74,55.4-1.73,110.74.14,166.41h-20.09c.38-28.16.77-56.47,1.16-84.97h-90.82c.56,28.33,1.13,56.52,1.69,84.97h-19.97c1.52-55.3,2.06-110.76-.32-166.4Z"/>
  <path d="M1224.19,7.95h20.22c0,6.67.03,13.3,0,19.93-.14,27.6-.57,55.2-.28,82.79.08,7.67,1.49,15.56,3.68,22.94,5.18,17.42,19.37,28.11,37.51,28.94,5.29.24,10.74.09,15.92-.91,17.51-3.37,26.71-15.39,29.94-31.88,2.04-10.4,2.78-21.2,2.78-31.82,0-26.48-.74-52.96-1.24-79.44-.07-3.43-.49-6.85-.77-10.53h17.86c-.33,6.94-.86,13.89-.95,20.85-.32,23.59-.2,47.19-.85,70.77-.31,11.18-.94,22.54-3.24,33.44-5.91,28-24.2,43.06-52.83,44.07-8.14.29-16.54-.38-24.47-2.14-21.71-4.83-34.43-19.18-38.71-40.61-1.92-9.63-2.52-19.63-2.73-29.48-.55-25.81-.5-51.63-.81-77.45-.08-6.43-.65-12.85-1-19.48Z"/>
  <path d="M531.08,174.34h-18.01c21.63-56.36,43.35-112.96,65.07-169.56.51,0,1.02-.02,1.53-.03,1.03,1.97,2.23,3.87,3.07,5.91,12.49,30.56,24.89,61.14,37.38,91.7,8.37,20.47,16.82,40.91,25.31,61.33,1.44,3.47,3.24,6.79,5.08,10.6h-22.8c-1.53-4.22-3.17-8.9-4.92-13.54-5.29-14.04-10.67-28.05-15.87-42.11-.79-2.15-1.83-2.8-4.08-2.78-16.59.1-33.17.12-49.76-.01-2.52-.02-3.44.92-4.14,3.15-5.66,18.02-11.42,36.01-17.17,54-.13.41-.39.77-.69,1.35ZM601.59,102.94c-8.26-21.62-16.31-42.71-24.69-64.64-7.74,21.97-15.2,43.13-22.79,64.64h47.48Z"/>
  <path d="M406.57,7.89c-.5,5.36-1.04,11.08-1.49,15.86-9.04-.88-17.95-1.99-26.89-2.54-7.65-.47-15.35-.23-23.02-.45-2.49-.07-3.52.52-3.5,3.3.12,17.47.07,34.95.05,52.42,0,1.9-.09,3.47,2.69,3.4,16.1-.36,32.21-.59,48.51-.86-.44,5-.96,10.81-1.46,16.51-15.53-4.12-31.51-2.51-47.33-3.27-2.67-.13-2.4,1.63-2.39,3.32.16,18.59.22,37.17.53,55.76.16,9.55-.63,9.39,9.48,10.18,13.67,1.08,27.34,1.33,40.93-.83,3.04-.48,5.99-1.54,9.27-2.4-1.15,5.19-2.18,10.38-3.55,15.48-.2.74-2.05,1.46-3.14,1.47-8.9.09-17.81.17-26.7-.04-15.11-.35-30.21-.91-45.62-1.38,1.72-54.82,2.21-110.06-.17-165.91h73.81Z"/>
  <path d="M1390.21,173.79c1.78-54.97,2.17-110.13-.1-165.9h73.73c-.48,5.2-1.01,10.99-1.53,16.67-13.7-3.69-27.63-3.41-41.5-3.71-3-.06-6.01.02-9.01-.09-1.93-.07-2.81.48-2.8,2.62.06,17.92.05,35.84,0,53.76,0,1.98.62,2.77,2.7,2.72,16.1-.33,32.21-.58,48.51-.85-.44,5-.96,10.8-1.47,16.51-15.53-4.11-31.51-2.52-47.33-3.27-2.68-.13-2.41,1.62-2.39,3.31.16,18.47.21,36.95.53,55.42.17,10-.72,9.74,9.82,10.55,13.56,1.04,27.12,1.3,40.6-.86,3.04-.49,5.99-1.54,9.28-2.4-1.15,5.19-2.18,10.38-3.55,15.47-.2.74-2.05,1.46-3.14,1.47-9.12.09-18.25.16-27.37-.05-14.89-.34-29.77-.9-44.97-1.37Z"/>
  <path d="M1563.07,29.72c-6.14-6.87-13.48-10.62-21.98-11.65-4.59-.56-9.43-.8-13.93.05-14.21,2.69-21.88,14.76-19.86,29.97.9,6.8,3.57,12.75,8.59,17.27,5.69,5.12,11.88,9.68,17.85,14.49,6.67,5.36,13.7,10.33,19.93,16.17,17.61,16.5,17.09,40.56,8.59,57.18-5.21,10.19-13.35,17.14-24.15,20.81-16.97,5.75-33.51,3.87-49.71-3.15-2.97-1.29-4.37-2.78-3.66-6.53,1.01-5.31.97-10.81,1.43-16.8.94.99,1.64,1.72,2.35,2.45,10.13,10.57,22.58,15.29,37.06,13.85,14.57-1.45,23.19-11.66,24.05-27.64.56-10.33-2.41-19.49-10.12-26.53-5.49-5.01-11.44-9.54-17.42-13.96-7.88-5.83-15.88-11.46-22.08-19.22-14.34-17.94-13.48-44.37,2.05-59.44,8.15-7.91,18.23-11.9,29.31-11.76,11.05.14,22.07,1.84,33.37,2.87-.59,7.64-1.11,14.31-1.68,21.59Z"/>
  <path d="M79.17,174.36h-19.37V20.77c-18.14.3-36.69-.45-55.27,3.57,1.07-5.96,2.12-11.79,3.06-16.98,42.82,1.65,85.36,1.43,128.2.06-.56,5.65-1.15,11.66-1.74,17.69-18.23-4.95-36.79-3.78-54.88-4.37v153.64Z"/>
  <path d="M904.03,20.72v153.55h-19.37V20.77c-18.06.29-36.6-.46-55.25,3.56,1.05-5.9,2.09-11.71,3.02-16.99,42.83,1.68,85.45,1.43,128.25.07-.59,5.8-1.21,11.8-1.81,17.66-18.28-4.9-36.77-3.75-54.84-4.35Z"/>
  <path d="M981.4,8.22h19.72c-1.51,55.11-1.74,110.47.12,166.14h-19.85c.24-27.5.67-55.17.68-82.85,0-27.59-.42-55.18-.66-83.29Z"/>
</svg>